<mxfile host="app.diagrams.net" agent="Mozilla/5.0 (Macintosh; Intel Mac OS X 10_15_7) AppleWebKit/605.1.15 (KHTML, like Gecko) Version/18.2 Safari/605.1.15" version="26.0.14">
  <diagram name="Page-1" id="PAiqyac9-RgSxXWKcVGb">
    <mxGraphModel dx="3612" dy="1618" grid="1" gridSize="10" guides="1" tooltips="1" connect="1" arrows="1" fold="1" page="1" pageScale="1" pageWidth="827" pageHeight="1169" math="0" shadow="0">
      <root>
        <mxCell id="0" />
        <mxCell id="1" parent="0" />
        <mxCell id="7Nrgp5Hd1OH0Jl-W5Jh1-2" value="" style="image;aspect=fixed;html=1;points=[];align=center;fontSize=12;image=img/lib/azure2/management_governance/Policy.svg;" vertex="1" parent="1">
          <mxGeometry x="1010" y="110" width="120" height="128" as="geometry" />
        </mxCell>
        <mxCell id="7Nrgp5Hd1OH0Jl-W5Jh1-1" value="" style="rounded=0;whiteSpace=wrap;html=1;movable=1;resizable=1;rotatable=1;deletable=1;editable=1;locked=0;connectable=1;" vertex="1" parent="1">
          <mxGeometry x="-80" y="110" width="2340" height="540" as="geometry" />
        </mxCell>
        <mxCell id="7Nrgp5Hd1OH0Jl-W5Jh1-57" style="edgeStyle=orthogonalEdgeStyle;rounded=0;orthogonalLoop=1;jettySize=auto;html=1;" edge="1" parent="1" source="7Nrgp5Hd1OH0Jl-W5Jh1-3" target="7Nrgp5Hd1OH0Jl-W5Jh1-55">
          <mxGeometry relative="1" as="geometry" />
        </mxCell>
        <mxCell id="7Nrgp5Hd1OH0Jl-W5Jh1-3" value="Azure DevOps Pipeline" style="image;sketch=0;aspect=fixed;html=1;points=[];align=center;fontSize=12;image=img/lib/mscae/Azure_Pipelines.svg;movable=1;resizable=1;rotatable=1;deletable=1;editable=1;locked=0;connectable=1;" vertex="1" parent="1">
          <mxGeometry x="-50" y="309" width="116" height="116" as="geometry" />
        </mxCell>
        <mxCell id="7Nrgp5Hd1OH0Jl-W5Jh1-14" style="edgeStyle=orthogonalEdgeStyle;rounded=0;orthogonalLoop=1;jettySize=auto;html=1;entryX=-0.005;entryY=0.422;entryDx=0;entryDy=0;entryPerimeter=0;" edge="1" parent="1" source="7Nrgp5Hd1OH0Jl-W5Jh1-4" target="7Nrgp5Hd1OH0Jl-W5Jh1-32">
          <mxGeometry relative="1" as="geometry">
            <mxPoint x="930" y="365" as="targetPoint" />
          </mxGeometry>
        </mxCell>
        <mxCell id="7Nrgp5Hd1OH0Jl-W5Jh1-4" value="Azure resource manager receives the API&lt;div&gt;request to deploy the VM&amp;nbsp;&lt;/div&gt;&lt;div&gt;and associated resources&lt;/div&gt;" style="image;aspect=fixed;html=1;points=[];align=center;fontSize=12;image=img/lib/azure2/general/Resource_Groups.svg;movable=1;resizable=1;rotatable=1;deletable=1;editable=1;locked=0;connectable=1;" vertex="1" parent="1">
          <mxGeometry x="650" y="308" width="121.12" height="114" as="geometry" />
        </mxCell>
        <mxCell id="7Nrgp5Hd1OH0Jl-W5Jh1-9" style="edgeStyle=orthogonalEdgeStyle;rounded=0;orthogonalLoop=1;jettySize=auto;html=1;" edge="1" parent="1" source="7Nrgp5Hd1OH0Jl-W5Jh1-7" target="7Nrgp5Hd1OH0Jl-W5Jh1-4">
          <mxGeometry relative="1" as="geometry" />
        </mxCell>
        <mxCell id="7Nrgp5Hd1OH0Jl-W5Jh1-7" value="The pipeline makes&lt;div&gt;an API call to Azure to deploy resources&lt;/div&gt;" style="image;aspect=fixed;html=1;points=[];align=center;fontSize=12;image=img/lib/azure2/app_services/API_Management_Services.svg;movable=1;resizable=1;rotatable=1;deletable=1;editable=1;locked=0;connectable=1;" vertex="1" parent="1">
          <mxGeometry x="380" y="307" width="127.83" height="118" as="geometry" />
        </mxCell>
        <mxCell id="7Nrgp5Hd1OH0Jl-W5Jh1-34" style="edgeStyle=orthogonalEdgeStyle;rounded=0;orthogonalLoop=1;jettySize=auto;html=1;" edge="1" parent="1" source="7Nrgp5Hd1OH0Jl-W5Jh1-32" target="7Nrgp5Hd1OH0Jl-W5Jh1-33">
          <mxGeometry relative="1" as="geometry" />
        </mxCell>
        <mxCell id="7Nrgp5Hd1OH0Jl-W5Jh1-32" value="" style="whiteSpace=wrap;html=1;aspect=fixed;" vertex="1" parent="1">
          <mxGeometry x="905.5" y="236" width="304.5" height="304.5" as="geometry" />
        </mxCell>
        <mxCell id="7Nrgp5Hd1OH0Jl-W5Jh1-16" value="NIC" style="whiteSpace=wrap;html=1;aspect=fixed;shape=image;labelBackgroundColor=default;verticalAlign=top;verticalLabelPosition=bottom;points=[];image=img/lib/azure2/networking/Network_Interfaces.svg;" vertex="1" parent="1">
          <mxGeometry x="1067.5700000000002" y="350.08000000000004" width="41.57" height="41.57" as="geometry" />
        </mxCell>
        <mxCell id="7Nrgp5Hd1OH0Jl-W5Jh1-24" value="VM" style="image;sketch=0;aspect=fixed;html=1;points=[];align=center;fontSize=12;image=img/lib/mscae/Virtual_Machine.svg;" vertex="1" parent="1">
          <mxGeometry x="950" y="270" width="50" height="46" as="geometry" />
        </mxCell>
        <mxCell id="7Nrgp5Hd1OH0Jl-W5Jh1-25" value="Storage" style="image;aspect=fixed;html=1;points=[];align=center;fontSize=12;image=img/lib/azure2/compute/Disks.svg;" vertex="1" parent="1">
          <mxGeometry x="1071.67" y="263" width="45.8" height="45" as="geometry" />
        </mxCell>
        <mxCell id="7Nrgp5Hd1OH0Jl-W5Jh1-26" value="Vnet" style="image;aspect=fixed;html=1;points=[];align=center;fontSize=12;image=img/lib/azure2/networking/Virtual_Networks.svg;" vertex="1" parent="1">
          <mxGeometry x="950" y="350.08" width="50" height="29.85" as="geometry" />
        </mxCell>
        <mxCell id="7Nrgp5Hd1OH0Jl-W5Jh1-27" value="NSG&lt;div&gt;Allow&amp;nbsp;&lt;/div&gt;&lt;div&gt;all trafic&lt;/div&gt;" style="image;aspect=fixed;html=1;points=[];align=center;fontSize=12;image=img/lib/azure2/networking/Network_Security_Groups.svg;" vertex="1" parent="1">
          <mxGeometry x="958.82" y="410" width="41.18" height="50" as="geometry" />
        </mxCell>
        <mxCell id="7Nrgp5Hd1OH0Jl-W5Jh1-28" value="Subnet" style="image;aspect=fixed;html=1;points=[];align=center;fontSize=12;image=img/lib/azure2/networking/Subnet.svg;" vertex="1" parent="1">
          <mxGeometry x="1028.25" y="480" width="43.42" height="26" as="geometry" />
        </mxCell>
        <mxCell id="7Nrgp5Hd1OH0Jl-W5Jh1-29" value="Public iP" style="image;aspect=fixed;html=1;points=[];align=center;fontSize=12;image=img/lib/azure2/networking/Public_IP_Addresses.svg;" vertex="1" parent="1">
          <mxGeometry x="1071.67" y="424" width="54" height="43.2" as="geometry" />
        </mxCell>
        <mxCell id="7Nrgp5Hd1OH0Jl-W5Jh1-19" value="UK South" style="sketch=0;outlineConnect=0;gradientColor=none;html=1;whiteSpace=wrap;fontSize=12;fontStyle=0;shape=mxgraph.aws4.group;grIcon=mxgraph.aws4.group_region;strokeColor=#879196;fillColor=none;verticalAlign=top;align=left;spacingLeft=30;fontColor=#879196;dashed=1;movable=1;resizable=1;rotatable=1;deletable=1;editable=1;locked=0;connectable=1;" vertex="1" parent="1">
          <mxGeometry x="940" y="238" width="220" height="296.25" as="geometry" />
        </mxCell>
        <mxCell id="7Nrgp5Hd1OH0Jl-W5Jh1-38" style="edgeStyle=orthogonalEdgeStyle;rounded=0;orthogonalLoop=1;jettySize=auto;html=1;entryX=0.5;entryY=1;entryDx=0;entryDy=0;" edge="1" parent="1">
          <mxGeometry relative="1" as="geometry">
            <mxPoint x="1395" y="388.29999999999995" as="sourcePoint" />
            <mxPoint x="1584" y="307" as="targetPoint" />
            <Array as="points">
              <mxPoint x="1584" y="388" />
            </Array>
          </mxGeometry>
        </mxCell>
        <mxCell id="7Nrgp5Hd1OH0Jl-W5Jh1-39" style="edgeStyle=orthogonalEdgeStyle;rounded=0;orthogonalLoop=1;jettySize=auto;html=1;entryX=0.5;entryY=0;entryDx=0;entryDy=0;" edge="1" parent="1" source="7Nrgp5Hd1OH0Jl-W5Jh1-33" target="7Nrgp5Hd1OH0Jl-W5Jh1-37">
          <mxGeometry relative="1" as="geometry" />
        </mxCell>
        <mxCell id="7Nrgp5Hd1OH0Jl-W5Jh1-33" value="Azure Policy Check" style="image;aspect=fixed;html=1;points=[];align=center;fontSize=12;image=img/lib/azure2/management_governance/Policy.svg;" vertex="1" parent="1">
          <mxGeometry x="1330" y="356.25" width="60" height="64" as="geometry" />
        </mxCell>
        <mxCell id="7Nrgp5Hd1OH0Jl-W5Jh1-44" value="" style="edgeStyle=orthogonalEdgeStyle;rounded=0;orthogonalLoop=1;jettySize=auto;html=1;" edge="1" parent="1" source="7Nrgp5Hd1OH0Jl-W5Jh1-36" target="7Nrgp5Hd1OH0Jl-W5Jh1-43">
          <mxGeometry relative="1" as="geometry" />
        </mxCell>
        <mxCell id="7Nrgp5Hd1OH0Jl-W5Jh1-36" value="" style="whiteSpace=wrap;html=1;aspect=fixed;fillColor=#d5e8d4;strokeColor=#82b366;" vertex="1" parent="1">
          <mxGeometry x="1494" y="137" width="170" height="170" as="geometry" />
        </mxCell>
        <mxCell id="7Nrgp5Hd1OH0Jl-W5Jh1-49" style="edgeStyle=orthogonalEdgeStyle;rounded=0;orthogonalLoop=1;jettySize=auto;html=1;entryX=0;entryY=0.5;entryDx=0;entryDy=0;" edge="1" parent="1" source="7Nrgp5Hd1OH0Jl-W5Jh1-37" target="7Nrgp5Hd1OH0Jl-W5Jh1-47">
          <mxGeometry relative="1" as="geometry" />
        </mxCell>
        <mxCell id="7Nrgp5Hd1OH0Jl-W5Jh1-37" value="" style="whiteSpace=wrap;html=1;aspect=fixed;fillColor=#f8cecc;strokeColor=#b85450;" vertex="1" parent="1">
          <mxGeometry x="1500" y="450" width="170" height="170" as="geometry" />
        </mxCell>
        <mxCell id="7Nrgp5Hd1OH0Jl-W5Jh1-40" value="&lt;font style=&quot;font-size: 20px;&quot;&gt;Compliant&lt;/font&gt;" style="text;html=1;align=center;verticalAlign=middle;whiteSpace=wrap;rounded=0;" vertex="1" parent="1">
          <mxGeometry x="1540" y="137" width="60" height="30" as="geometry" />
        </mxCell>
        <mxCell id="7Nrgp5Hd1OH0Jl-W5Jh1-41" value="&lt;font style=&quot;font-size: 20px;&quot;&gt;None Complaint&lt;/font&gt;" style="text;html=1;align=center;verticalAlign=middle;whiteSpace=wrap;rounded=0;" vertex="1" parent="1">
          <mxGeometry x="1523" y="467.2" width="131" height="30" as="geometry" />
        </mxCell>
        <mxCell id="7Nrgp5Hd1OH0Jl-W5Jh1-66" style="edgeStyle=orthogonalEdgeStyle;rounded=0;orthogonalLoop=1;jettySize=auto;html=1;" edge="1" parent="1" source="7Nrgp5Hd1OH0Jl-W5Jh1-43" target="7Nrgp5Hd1OH0Jl-W5Jh1-63">
          <mxGeometry relative="1" as="geometry" />
        </mxCell>
        <mxCell id="7Nrgp5Hd1OH0Jl-W5Jh1-43" value="Deploys" style="whiteSpace=wrap;html=1;fillColor=#d5e8d4;strokeColor=#82b366;" vertex="1" parent="1">
          <mxGeometry x="1769" y="192" width="120" height="60" as="geometry" />
        </mxCell>
        <mxCell id="7Nrgp5Hd1OH0Jl-W5Jh1-47" value="Does Not Deploy" style="whiteSpace=wrap;html=1;fillColor=#f8cecc;strokeColor=#b85450;" vertex="1" parent="1">
          <mxGeometry x="1780" y="505" width="120" height="60" as="geometry" />
        </mxCell>
        <mxCell id="7Nrgp5Hd1OH0Jl-W5Jh1-50" value="" style="verticalLabelPosition=bottom;verticalAlign=top;html=1;shape=mxgraph.basic.tick" vertex="1" parent="1">
          <mxGeometry x="1543" y="180" width="85" height="100" as="geometry" />
        </mxCell>
        <mxCell id="7Nrgp5Hd1OH0Jl-W5Jh1-51" value="" style="verticalLabelPosition=bottom;verticalAlign=top;html=1;shape=mxgraph.basic.x" vertex="1" parent="1">
          <mxGeometry x="1539" y="510" width="100" height="100" as="geometry" />
        </mxCell>
        <mxCell id="7Nrgp5Hd1OH0Jl-W5Jh1-52" value="&lt;span style=&quot;font-size: medium;&quot;&gt;Enforcing Compliance with Azure Policy in Azure Pipelines&lt;/span&gt;" style="text;html=1;align=center;verticalAlign=middle;whiteSpace=wrap;rounded=0;" vertex="1" parent="1">
          <mxGeometry x="894.96" y="137" width="310" height="30" as="geometry" />
        </mxCell>
        <mxCell id="7Nrgp5Hd1OH0Jl-W5Jh1-58" style="edgeStyle=orthogonalEdgeStyle;rounded=0;orthogonalLoop=1;jettySize=auto;html=1;" edge="1" parent="1" source="7Nrgp5Hd1OH0Jl-W5Jh1-55" target="7Nrgp5Hd1OH0Jl-W5Jh1-7">
          <mxGeometry relative="1" as="geometry" />
        </mxCell>
        <mxCell id="7Nrgp5Hd1OH0Jl-W5Jh1-55" value="Defender For Cloud&lt;div&gt;DevOps capability&lt;/div&gt;&lt;div&gt;monitors for pipeline&lt;/div&gt;&lt;div&gt;misconfigurations&lt;/div&gt;" style="image;aspect=fixed;html=1;points=[];align=center;fontSize=12;image=img/lib/azure2/security/Security_Center.svg;" vertex="1" parent="1">
          <mxGeometry x="180" y="303" width="103.76" height="126" as="geometry" />
        </mxCell>
        <mxCell id="7Nrgp5Hd1OH0Jl-W5Jh1-63" value="Defender for Cloud continuously scans&lt;div&gt;&amp;nbsp;deployed resources for security risks and misconfigurations&lt;/div&gt;&lt;div&gt;&amp;nbsp;after policy evaluation&lt;/div&gt;" style="image;aspect=fixed;html=1;points=[];align=center;fontSize=12;image=img/lib/azure2/security/Security_Center.svg;" vertex="1" parent="1">
          <mxGeometry x="2024" y="168.74" width="87.71" height="106.52" as="geometry" />
        </mxCell>
      </root>
    </mxGraphModel>
  </diagram>
</mxfile>
